{
  "accessors": [
    {
      "bufferView": 0,
      "componentType": 5126,
      "count": 65535,
      "max": [
        15.64218807220459,
        14.179718971252441,
        14.621155738830566
      ],
      "min": [
        -26.256765365600586,
        -17.99681282043457,
        -0.04514945298433304
      ],
      "type": "VEC3"
    },
    {
      "bufferView": 1,
      "componentType": 5126,
      "count": 65535,
      "max": [
        1.0,
        1.0,
        1.0,
        1.0
      ],
      "min": [
        0.0,
        0.0,
        0.0,
        1.0
      ],
      "type": "VEC4"
    },
    {
      "bufferView": 0,
      "byteOffset": 786420,
      "componentType": 5126,
      "count": 65535,
      "max": [
        15.698841094970703,
        14.052400588989258,
        14.579965591430664
      ],
      "min": [
        -26.535106658935547,
        -18.668500900268555,
        -0.18242855370044708
      ],
      "type": "VEC3"
    },
    {
      "bufferView": 1,
      "byteOffset": 1048560,
      "componentType": 5126,
      "count": 65535,
      "max": [
        1.0,
        1.0,
        1.0,
        1.0
      ],
      "min": [
        0.0,
        0.0,
        0.0,
        1.0
      ],
      "type": "VEC4"
    },
    {
      "bufferView": 0,
      "byteOffset": 1572840,
      "componentType": 5126,
      "count": 65535,
      "max": [
        15.452163696289063,
        14.175240516662598,
        14.703246116638184
      ],
      "min": [
        -27.47700309753418,
        -18.562711715698242,
        -0.1689303070306778
      ],
      "type": "VEC3"
    },
    {
      "bufferView": 1,
      "byteOffset": 2097120,
      "componentType": 5126,
      "count": 65535,
      "max": [
        1.0,
        1.0,
        1.0,
        1.0
      ],
      "min": [
        0.0,
        0.0,
        0.0,
        1.0
      ],
      "type": "VEC4"
    },
    {
      "bufferView": 0,
      "byteOffset": 2359260,
      "componentType": 5126,
      "count": 65535,
      "max": [
        14.013855934143066,
        3.316528558731079,
        13.356000900268555
      ],
      "min": [
        -27.603837966918945,
        -18.695674896240234,
        -0.18430589139461517
      ],
      "type": "VEC3"
    },
    {
      "bufferView": 1,
      "byteOffset": 3145680,
      "componentType": 5126,
      "count": 65535,
      "max": [
        1.0,
        1.0,
        0.9882352948188782,
        1.0
      ],
      "min": [
        0.0,
        0.0,
        0.0,
        1.0
      ],
      "type": "VEC4"
    },
    {
      "bufferView": 0,
      "byteOffset": 3145680,
      "componentType": 5126,
      "count": 65535,
      "max": [
        15.647777557373047,
        13.488048553466797,
        13.465095520019531
      ],
      "min": [
        -27.300437927246094,
        -18.48563575744629,
        0.45686277747154236
      ],
      "type": "VEC3"
    },
    {
      "bufferView": 1,
      "byteOffset": 4194240,
      "componentType": 5126,
      "count": 65535,
      "max": [
        1.0,
        1.0,
        1.0,
        1.0
      ],
      "min": [
        0.0,
        0.0,
        0.0,
        1.0
      ],
      "type": "VEC4"
    },
    {
      "bufferView": 0,
      "byteOffset": 3932100,
      "componentType": 5126,
      "count": 65535,
      "max": [
        15.679386138916016,
        13.55616569519043,
        14.111879348754883
      ],
      "min": [
        -23.78900909423828,
        -10.116008758544922,
        0.11894328892230988
      ],
      "type": "VEC3"
    },
    {
      "bufferView": 1,
      "byteOffset": 5242800,
      "componentType": 5126,
      "count": 65535,
      "max": [
        1.0,
        1.0,
        1.0,
        1.0
      ],
      "min": [
        0.0,
        0.0,
        0.0,
        1.0
      ],
      "type": "VEC4"
    },
    {
      "bufferView": 0,
      "byteOffset": 4718520,
      "componentType": 5126,
      "count": 65535,
      "max": [
        15.652652740478516,
        13.656047821044922,
        14.421773910522461
      ],
      "min": [
        -23.804035186767578,
        -18.035661697387695,
        -0.08695229142904282
      ],
      "type": "VEC3"
    },
    {
      "bufferView": 1,
      "byteOffset": 6291360,
      "componentType": 5126,
      "count": 65535,
      "max": [
        1.0,
        1.0,
        1.0,
        1.0
      ],
      "min": [
        0.0,
        0.0,
        0.0,
        1.0
      ],
      "type": "VEC4"
    },
    {
      "bufferView": 0,
      "byteOffset": 5504940,
      "componentType": 5126,
      "count": 65535,
      "max": [
        14.673558235168457,
        10.455608367919922,
        13.474645614624023
      ],
      "min": [
        -27.4119930267334,
        -18.010915756225586,
        -0.05116875842213631
      ],
      "type": "VEC3"
    },
    {
      "bufferView": 1,
      "byteOffset": 7339920,
      "componentType": 5126,
      "count": 65535,
      "max": [
        1.0,
        1.0,
        1.0,
        1.0
      ],
      "min": [
        0.0,
        0.0,
        0.0,
        1.0
      ],
      "type": "VEC4"
    },
    {
      "bufferView": 0,
      "byteOffset": 6291360,
      "componentType": 5126,
      "count": 65535,
      "max": [
        4.163603782653809,
        10.732929229736328,
        13.329036712646484
      ],
      "min": [
        -27.44174575805664,
        -18.841562271118164,
        0.5507235527038574
      ],
      "type": "VEC3"
    },
    {
      "bufferView": 1,
      "byteOffset": 8388480,
      "componentType": 5126,
      "count": 65535,
      "max": [
        1.0,
        1.0,
        1.0,
        1.0
      ],
      "min": [
        0.0,
        0.0,
        0.0,
        1.0
      ],
      "type": "VEC4"
    },
    {
      "bufferView": 0,
      "byteOffset": 7077780,
      "componentType": 5126,
      "count": 65535,
      "max": [
        15.6857328414917,
        14.071115493774414,
        14.115903854370117
      ],
      "min": [
        -26.94645118713379,
        -18.011350631713867,
        0.1265958994626999
      ],
      "type": "VEC3"
    },
    {
      "bufferView": 1,
      "byteOffset": 9437040,
      "componentType": 5126,
      "count": 65535,
      "max": [
        1.0,
        1.0,
        1.0,
        1.0
      ],
      "min": [
        0.0,
        0.0,
        0.0,
        1.0
      ],
      "type": "VEC4"
    },
    {
      "bufferView": 0,
      "byteOffset": 7864200,
      "componentType": 5126,
      "count": 65535,
      "max": [
        15.515686988830566,
        13.993169784545898,
        14.011865615844727
      ],
      "min": [
        -27.210229873657227,
        -18.590328216552734,
        0.08841267228126526
      ],
      "type": "VEC3"
    },
    {
      "bufferView": 1,
      "byteOffset": 10485600,
      "componentType": 5126,
      "count": 65535,
      "max": [
        1.0,
        1.0,
        1.0,
        1.0
      ],
      "min": [
        0.0,
        0.0,
        0.0,
        1.0
      ],
      "type": "VEC4"
    },
    {
      "bufferView": 0,
      "byteOffset": 8650620,
      "componentType": 5126,
      "count": 65535,
      "max": [
        14.767409324645996,
        13.278131484985352,
        13.634057998657227
      ],
      "min": [
        -27.45953941345215,
        -18.65900993347168,
        -0.19158384203910828
      ],
      "type": "VEC3"
    },
    {
      "bufferView": 1,
      "byteOffset": 11534160,
      "componentType": 5126,
      "count": 65535,
      "max": [
        1.0,
        1.0,
        1.0,
        1.0
      ],
      "min": [
        0.0,
        0.0,
        0.0,
        1.0
      ],
      "type": "VEC4"
    },
    {
      "bufferView": 0,
      "byteOffset": 9437040,
      "componentType": 5126,
      "count": 65535,
      "max": [
        15.764522552490234,
        12.145009994506836,
        14.715638160705566
      ],
      "min": [
        -9.074068069458008,
        -17.38119888305664,
        -0.18383637070655823
      ],
      "type": "VEC3"
    },
    {
      "bufferView": 1,
      "byteOffset": 12582720,
      "componentType": 5126,
      "count": 65535,
      "max": [
        1.0,
        1.0,
        0.9960784316062927,
        1.0
      ],
      "min": [
        0.0,
        0.0,
        0.0,
        1.0
      ],
      "type": "VEC4"
    },
    {
      "bufferView": 0,
      "byteOffset": 10223460,
      "componentType": 5126,
      "count": 54976,
      "max": [
        15.67566967010498,
        11.961408615112305,
        13.867547988891602
      ],
      "min": [
        0.9931800365447998,
        -6.080321311950684,
        -0.11528968811035156
      ],
      "type": "VEC3"
    },
    {
      "bufferView": 1,
      "byteOffset": 13631280,
      "componentType": 5126,
      "count": 54976,
      "max": [
        1.0,
        1.0,
        1.0,
        1.0
      ],
      "min": [
        0.0,
        0.0,
        0.0,
        1.0
      ],
      "type": "VEC4"
    }
  ],
  "asset": {
    "extras": {
      "author": "sebastianmedina904 (https://sketchfab.com/sebastianmedina904)",
      "license": "COPYRIGHT TO sebastianmedina904",
      "source": "https://sketchfab.com/3d-models/extension-sur-24da88ddc91b41d380c22f6a2395eafe",
      "title": "extension_sur"
    },
    "generator": "Sketchfab-16.56.0",
    "version": "2.0"
  },
  "bufferViews": [
    {
      "buffer": 0,
      "byteLength": 10883172,
      "byteStride": 12,
      "name": "floatBufferViews",
      "target": 34962
    },
    {
      "buffer": 0,
      "byteLength": 14510896,
      "byteOffset": 10883172,
      "byteStride": 16,
      "name": "floatBufferViews",
      "target": 34962
    }
  ],
  "buffers": [
    {
      "byteLength": 25394068,
      "uri": "scene.bin"
    }
  ],
  "extensionsUsed": [
    "KHR_materials_unlit"
  ],
  "materials": [
    {
      "doubleSided": true,
      "extensions": {
        "KHR_materials_unlit": {}
      },
      "name": "Scene_-_Root",
      "pbrMetallicRoughness": {
        "metallicFactor": 0.0
      }
    }
  ],
  "meshes": [
    {
      "name": "Object_0",
      "primitives": [
        {
          "attributes": {
            "COLOR_0": 1,
            "POSITION": 0
          },
          "material": 0,
          "mode": 0
        }
      ]
    },
    {
      "name": "Object_1",
      "primitives": [
        {
          "attributes": {
            "COLOR_0": 3,
            "POSITION": 2
          },
          "material": 0,
          "mode": 0
        }
      ]
    },
    {
      "name": "Object_2",
      "primitives": [
        {
          "attributes": {
            "COLOR_0": 5,
            "POSITION": 4
          },
          "material": 0,
          "mode": 0
        }
      ]
    },
    {
      "name": "Object_3",
      "primitives": [
        {
          "attributes": {
            "COLOR_0": 7,
            "POSITION": 6
          },
          "material": 0,
          "mode": 0
        }
      ]
    },
    {
      "name": "Object_4",
      "primitives": [
        {
          "attributes": {
            "COLOR_0": 9,
            "POSITION": 8
          },
          "material": 0,
          "mode": 0
        }
      ]
    },
    {
      "name": "Object_5",
      "primitives": [
        {
          "attributes": {
            "COLOR_0": 11,
            "POSITION": 10
          },
          "material": 0,
          "mode": 0
        }
      ]
    },
    {
      "name": "Object_6",
      "primitives": [
        {
          "attributes": {
            "COLOR_0": 13,
            "POSITION": 12
          },
          "material": 0,
          "mode": 0
        }
      ]
    },
    {
      "name": "Object_7",
      "primitives": [
        {
          "attributes": {
            "COLOR_0": 15,
            "POSITION": 14
          },
          "material": 0,
          "mode": 0
        }
      ]
    },
    {
      "name": "Object_8",
      "primitives": [
        {
          "attributes": {
            "COLOR_0": 17,
            "POSITION": 16
          },
          "material": 0,
          "mode": 0
        }
      ]
    },
    {
      "name": "Object_9",
      "primitives": [
        {
          "attributes": {
            "COLOR_0": 19,
            "POSITION": 18
          },
          "material": 0,
          "mode": 0
        }
      ]
    },
    {
      "name": "Object_10",
      "primitives": [
        {
          "attributes": {
            "COLOR_0": 21,
            "POSITION": 20
          },
          "material": 0,
          "mode": 0
        }
      ]
    },
    {
      "name": "Object_11",
      "primitives": [
        {
          "attributes": {
            "COLOR_0": 23,
            "POSITION": 22
          },
          "material": 0,
          "mode": 0
        }
      ]
    },
    {
      "name": "Object_12",
      "primitives": [
        {
          "attributes": {
            "COLOR_0": 25,
            "POSITION": 24
          },
          "material": 0,
          "mode": 0
        }
      ]
    },
    {
      "name": "Object_13",
      "primitives": [
        {
          "attributes": {
            "COLOR_0": 27,
            "POSITION": 26
          },
          "material": 0,
          "mode": 0
        }
      ]
    }
  ],
  "nodes": [
    {
      "children": [
        1
      ],
      "matrix": [
        1.0,
        0.0,
        0.0,
        0.0,
        0.0,
        2.220446049250313e-16,
        -1.0,
        0.0,
        0.0,
        1.0,
        2.220446049250313e-16,
        0.0,
        0.0,
        0.0,
        0.0,
        1.0
      ],
      "name": "Sketchfab_model"
    },
    {
      "children": [
        2,
        3,
        4,
        5,
        6,
        7,
        8,
        9,
        10,
        11,
        12,
        13,
        14,
        15
      ],
      "name": "Geode"
    },
    {
      "mesh": 0,
      "name": "Object_2"
    },
    {
      "mesh": 1,
      "name": "Object_3"
    },
    {
      "mesh": 2,
      "name": "Object_4"
    },
    {
      "mesh": 3,
      "name": "Object_5"
    },
    {
      "mesh": 4,
      "name": "Object_6"
    },
    {
      "mesh": 5,
      "name": "Object_7"
    },
    {
      "mesh": 6,
      "name": "Object_8"
    },
    {
      "mesh": 7,
      "name": "Object_9"
    },
    {
      "mesh": 8,
      "name": "Object_10"
    },
    {
      "mesh": 9,
      "name": "Object_11"
    },
    {
      "mesh": 10,
      "name": "Object_12"
    },
    {
      "mesh": 11,
      "name": "Object_13"
    },
    {
      "mesh": 12,
      "name": "Object_14"
    },
    {
      "mesh": 13,
      "name": "Object_15"
    }
  ],
  "scene": 0,
  "scenes": [
    {
      "name": "Sketchfab_Scene",
      "nodes": [
        0
      ]
    }
  ]
}
